<?xml version="1.0" standalone="no"?>
<!DOCTYPE svg PUBLIC "-//W3C//DTD SVG 20010904//EN"
 "http://www.w3.org/TR/2001/REC-SVG-20010904/DTD/svg10.dtd">
<svg version="1.0" xmlns="http://www.w3.org/2000/svg"
 width="500.000000pt" height="500.000000pt" viewBox="0 0 500.000000 500.000000"
 preserveAspectRatio="xMidYMid meet">
<metadata>
Created by potrace 1.14, written by Peter Selinger 2001-2017
</metadata>
<g transform="translate(0.000000,500.000000) scale(0.100000,-0.100000)"
fill="#000000" stroke="none">
<path d="M2570 4153 c-14 -3 -27 -9 -30 -14 -9 -14 -81 -14 -89 0 -7 10 -13
11 -27 2 -11 -6 -13 -11 -6 -11 14 0 17 -40 2 -40 -5 0 -7 -7 -4 -15 4 -10 0
-15 -15 -15 -12 0 -21 6 -21 15 0 11 -5 12 -24 5 -13 -5 -27 -6 -31 -2 -3 3
-3 -2 1 -13 4 -11 4 -17 -1 -13 -4 4 -15 3 -24 -2 -10 -5 -22 -6 -28 -2 -14 9
-20 43 -10 60 5 6 4 12 -2 12 -5 0 -13 -4 -16 -10 -3 -5 -17 -10 -31 -10 -15
0 -24 -6 -24 -16 0 -11 6 -14 18 -10 14 5 13 3 -3 -9 -11 -9 -30 -13 -41 -11
-13 4 -27 0 -34 -9 -17 -21 -37 -19 -43 5 -4 14 -10 18 -22 14 -12 -5 -13 -9
-5 -14 8 -5 2 -11 -17 -18 -15 -5 -37 -13 -47 -18 -14 -5 -17 -4 -12 4 10 17
-3 15 -20 -3 -12 -12 -63 -31 -109 -40 -5 -2 -31 -13 -58 -25 -50 -24 -75 -47
-37 -35 30 9 158 15 193 8 15 -3 27 -12 27 -20 0 -10 4 -11 19 -3 28 15 53 2
45 -23 -6 -19 -3 -19 37 -13 24 4 40 4 36 0 -4 -4 5 -13 20 -20 20 -9 23 -13
10 -13 -24 -1 -51 -28 -37 -36 6 -4 8 -11 4 -16 -3 -6 10 -7 35 -3 35 6 41 4
41 -11 0 -10 6 -23 13 -29 7 -6 10 -10 8 -9 -2 1 -13 -3 -25 -10 -11 -6 -28
-12 -36 -12 -10 0 -14 -9 -13 -23 2 -13 -6 -33 -18 -45 l-20 -22 38 -5 c60 -9
68 -18 39 -44 -15 -12 -26 -25 -26 -30 0 -32 -61 -44 -92 -18 -14 12 -18 11
-33 -12 -10 -14 -24 -26 -31 -26 -8 0 -14 -7 -14 -16 0 -23 -32 -45 -46 -33
-7 6 -16 4 -24 -6 -7 -8 -29 -15 -50 -15 -34 0 -38 -3 -50 -40 -7 -22 -19 -40
-27 -40 -7 0 -13 -8 -13 -18 0 -23 -19 -42 -41 -42 -9 0 -22 -7 -29 -15 -7 -9
-15 -13 -18 -11 -2 3 -13 1 -24 -5 -15 -8 -17 -14 -8 -24 13 -16 6 -65 -12
-77 -7 -4 -20 -8 -29 -8 -9 0 -28 -9 -42 -20 -14 -11 -28 -16 -31 -11 -7 11
-1 58 10 85 4 11 4 17 -2 15 -67 -34 -64 -33 -77 -15 -13 17 -15 16 -26 -13
-8 -17 -17 -31 -22 -31 -5 0 -9 -7 -9 -17 0 -21 -11 -11 -14 14 -2 10 -11 17
-21 16 -13 -1 -15 4 -10 25 4 15 11 30 17 33 17 10 -17 40 -36 33 -9 -3 -16
-11 -16 -17 0 -11 -15 0 -15 11 0 4 -4 13 -9 20 -4 7 -3 19 4 27 17 21 5 46
-17 38 -16 -6 -16 -5 -4 10 7 9 10 17 5 17 -5 0 -9 22 -9 50 0 27 3 50 8 50 4
0 7 9 7 20 0 11 13 50 30 87 33 73 33 73 22 73 -4 0 -26 -24 -47 -52 -22 -29
-46 -59 -52 -66 -7 -7 -13 -18 -13 -24 0 -6 -11 -21 -24 -33 -14 -13 -22 -25
-19 -28 7 -7 -46 -77 -59 -77 -5 0 -6 6 -2 13 5 8 3 8 -7 -1 -12 -11 -11 -15
5 -27 16 -12 16 -16 4 -34 -8 -12 -18 -18 -21 -14 -4 3 -7 -3 -7 -14 0 -11
-10 -28 -22 -39 -12 -10 -18 -14 -15 -7 4 6 3 14 -2 18 -6 3 -15 -5 -22 -17
-7 -13 -17 -26 -23 -30 -7 -5 -4 -8 7 -8 9 0 17 -5 17 -10 0 -6 3 -9 8 -9 19
3 30 -2 28 -14 -2 -16 -36 -64 -36 -52 0 6 -7 2 -15 -9 -10 -13 -11 -25 -5
-42 6 -15 6 -24 0 -24 -6 0 -16 -11 -22 -25 -6 -14 -15 -25 -20 -25 -5 0 -4 9
1 19 8 15 7 20 -5 25 -34 13 -44 7 -38 -24 5 -20 3 -30 -6 -30 -7 0 -10 -7 -6
-15 3 -9 -1 -18 -9 -21 -17 -7 -48 -64 -35 -64 5 0 11 4 15 10 3 5 13 6 22 3
11 -4 14 -3 9 5 -12 20 8 13 27 -8 10 -12 15 -26 11 -31 -3 -6 3 -13 14 -16
28 -7 33 -24 16 -54 l-13 -24 -2 25 c-1 17 -3 20 -6 8 -2 -10 -9 -18 -15 -18
-6 0 -8 -10 -4 -25 4 -16 2 -27 -6 -30 -9 -4 -14 -28 -15 -73 -1 -46 1 -59 7
-42 9 29 11 27 15 -18 1 -18 -2 -35 -6 -38 -5 -3 -9 -1 -9 4 0 6 -9 8 -20 5
-11 -3 -17 -9 -14 -14 3 -5 3 -9 -1 -9 -3 0 -10 10 -15 23 l-9 22 0 -22 c-1
-14 -7 -23 -16 -23 -13 0 -17 6 -14 26 0 4 -5 10 -12 15 -7 4 -14 15 -15 24
-1 9 -5 19 -8 22 -2 3 -3 -30 -1 -73 3 -61 1 -82 -11 -95 -14 -16 -14 -18 5
-29 17 -9 21 -8 21 6 0 24 12 10 25 -29 9 -26 8 -37 -7 -58 -17 -25 -17 -28 2
-63 14 -28 16 -44 10 -61 -6 -16 -5 -25 3 -29 7 -2 1 -5 -12 -5 -16 -1 -21 3
-18 13 3 8 -2 16 -14 19 -21 6 -24 -12 -9 -48 6 -14 9 -15 10 -5 2 28 22 -35
25 -79 1 -24 8 -46 14 -50 6 -4 10 -29 9 -57 -1 -52 4 -80 22 -114 6 -11 13
-34 15 -50 6 -53 100 -243 162 -330 93 -130 239 -271 323 -313 22 -10 40 -23
40 -27 0 -5 10 -12 21 -15 12 -4 38 -24 57 -44 30 -29 33 -31 19 -8 -10 15
-13 27 -8 27 5 0 13 -4 16 -10 3 -5 15 -10 26 -10 10 0 19 -4 19 -10 0 -5 13
-16 30 -25 16 -9 30 -13 30 -10 0 4 12 -3 28 -15 15 -12 27 -27 27 -32 0 -6
10 -14 22 -19 16 -6 22 -3 26 12 3 11 0 19 -7 19 -7 0 -13 6 -13 13 0 21 48 8
76 -19 23 -23 36 -29 56 -24 35 8 57 6 61 -5 3 -7 15 -16 27 -20 18 -6 19 -8
6 -12 -10 -2 -15 -11 -12 -21 3 -13 16 -17 51 -18 28 0 59 -8 75 -18 15 -10
27 -15 27 -12 0 4 9 2 20 -4 27 -14 25 -8 -8 27 -16 16 -34 27 -41 25 -13 -4
-11 20 4 30 5 4 14 4 20 0 6 -4 2 2 -10 12 -16 16 -17 18 -3 13 18 -6 44 24
32 36 -4 3 3 5 15 4 13 -1 20 -6 16 -15 -5 -14 28 -30 60 -28 11 1 26 -4 34
-12 9 -9 17 -10 25 -3 7 6 22 9 35 6 12 -2 32 0 44 5 22 9 22 9 -3 10 -25 1
-25 1 -2 10 24 10 55 3 47 -10 -3 -5 2 -16 12 -25 14 -14 14 -18 2 -27 -11 -8
-11 -9 2 -5 9 3 22 1 30 -4 12 -8 11 -11 -4 -20 -9 -6 -15 -14 -12 -20 4 -5
-1 -9 -9 -9 -9 0 -16 -4 -16 -10 0 -10 61 -2 70 9 3 4 14 6 25 6 11 0 25 3 31
8 7 4 19 1 28 -8 12 -12 20 -14 33 -6 10 6 13 11 6 11 -14 0 -10 47 6 63 8 8
19 7 40 -6 19 -11 32 -14 36 -7 4 6 12 7 18 3 9 -5 9 -3 0 8 -10 12 -8 15 13
17 14 1 33 -2 42 -8 13 -7 14 -9 3 -10 -11 0 -12 -3 -4 -11 6 -6 9 -18 6 -27
-5 -11 -3 -13 8 -6 15 9 20 11 45 13 11 1 15 7 11 20 -6 23 12 32 44 24 15 -4
20 -3 15 5 -4 7 -3 12 3 12 5 0 16 3 24 6 9 3 16 -3 20 -15 4 -15 10 -19 22
-15 11 5 13 9 5 14 -6 4 7 14 32 23 33 13 44 14 50 4 5 -7 8 -8 8 -1 0 12 50
38 58 29 3 -2 11 0 18 5 6 6 20 12 30 14 28 6 137 57 131 62 -2 3 -23 1 -45
-5 -44 -9 -161 -12 -192 -4 -12 3 -16 11 -13 20 5 13 3 13 -16 4 -12 -7 -31
-9 -42 -6 -16 6 -18 9 -8 22 18 21 -7 35 -34 20 -15 -9 -21 -9 -24 1 -3 6 -14
12 -26 12 -20 0 -20 2 7 23 20 16 26 26 17 31 -6 4 -9 12 -5 17 5 9 -24 6 -64
-7 -8 -2 -12 3 -10 16 2 10 -6 26 -17 35 -16 12 -17 14 -2 9 10 -4 17 -1 17 6
0 6 4 9 9 5 5 -3 12 -1 16 4 3 5 14 8 25 6 17 -3 18 -1 8 21 -9 19 -8 27 3 37
41 33 39 42 -6 41 -27 -1 -49 3 -56 12 -9 11 -8 14 6 14 10 0 16 3 13 6 -3 3
8 20 26 39 24 26 38 33 60 31 15 -2 32 -9 36 -16 6 -9 13 -5 25 14 10 14 24
26 31 26 8 0 14 7 14 16 0 23 32 45 46 33 7 -6 16 -4 24 6 7 9 29 15 50 15 35
0 39 3 50 35 6 19 19 41 28 47 9 7 17 19 17 27 0 15 8 20 73 48 35 15 41 22
37 40 -9 40 10 67 64 90 46 19 52 20 60 6 5 -10 3 -29 -6 -51 -8 -18 -10 -32
-6 -30 4 2 21 10 36 18 26 13 30 13 39 -3 8 -16 12 -14 34 18 13 20 24 41 24
48 0 8 4 7 9 -3 6 -8 8 -18 5 -22 -3 -4 7 -10 21 -14 l26 -6 -19 -33 c-18 -30
-19 -32 -2 -43 13 -8 23 -7 38 3 18 13 20 12 25 -13 3 -15 1 -35 -4 -45 -11
-19 -3 -41 12 -32 10 7 10 4 13 -73 0 -28 -1 -52 -4 -52 -3 0 -7 -11 -8 -25
-1 -13 -15 -53 -32 -88 -37 -79 -37 -86 -2 -50 41 42 92 109 92 122 0 15 37
51 53 51 8 0 8 3 -2 9 -12 7 -10 14 8 38 13 15 30 28 39 28 9 0 18 8 20 17 2
13 -1 16 -12 12 -22 -9 -20 19 2 39 10 10 21 14 25 11 3 -3 3 3 1 13 -3 11 3
26 15 37 19 17 21 17 21 3 0 -10 5 -17 10 -17 6 0 10 6 10 14 0 7 7 19 16 27
14 11 13 14 -3 23 -17 10 -23 12 -42 15 -13 2 -7 34 7 39 7 2 12 10 12 18 0 8
3 13 8 13 28 -5 36 10 20 37 -4 6 4 27 18 47 28 41 39 47 29 16 -5 -15 -2 -22
14 -26 12 -3 18 -10 14 -17 -3 -6 -2 -7 3 -3 5 5 10 23 10 40 3 47 9 68 25 81
8 6 20 22 27 35 12 21 12 22 -10 16 -13 -4 -26 -12 -29 -18 -11 -16 -31 4 -26
25 5 16 3 17 -11 6 -13 -11 -15 -11 -9 4 6 16 -15 43 -25 32 -12 -12 -13 23
-2 56 11 29 20 27 15 -3 -1 -5 4 -7 11 -5 7 3 13 14 13 25 1 11 6 27 12 35 7
8 10 24 6 36 -3 12 -1 28 4 35 6 6 6 23 2 37 -4 14 -8 18 -9 10 -1 -11 -4 -9
-9 5 -4 10 -3 33 2 50 6 16 12 36 14 44 2 8 6 11 9 8 4 -3 2 -19 -4 -35 -9
-27 -8 -29 9 -25 10 3 16 9 13 14 -3 5 -1 9 5 9 5 0 12 -6 14 -12 4 -10 6 -10
6 0 1 6 10 12 22 12 11 0 17 -4 14 -10 -4 -6 -1 -18 6 -26 7 -9 14 -23 15 -31
5 -29 12 -24 16 11 2 20 0 36 -5 36 -12 0 -1 90 13 104 13 13 13 29 0 21 -5
-3 -10 -1 -10 4 0 6 -4 11 -10 11 -5 0 -10 -7 -10 -17 0 -21 -9 -12 -15 16 -3
11 -7 30 -9 41 -3 11 2 26 10 34 16 17 19 46 4 46 -5 0 -10 8 -10 18 0 10 -4
22 -9 28 -5 5 -7 24 -4 42 4 26 8 30 19 21 8 -6 12 -15 9 -19 -3 -4 4 -10 15
-13 16 -4 20 0 19 16 -1 29 -17 68 -19 47 -1 -8 -8 -2 -15 15 -7 16 -11 38 -9
49 2 10 -1 27 -6 36 -15 29 -23 93 -11 85 6 -3 11 -2 11 4 0 5 -4 13 -10 16
-5 3 -10 16 -10 28 0 12 -7 35 -15 51 -9 16 -17 41 -19 55 -4 38 -15 64 -88
214 -67 138 -293 384 -391 425 -17 7 -34 17 -37 22 -10 16 -81 60 -89 55 -11
-6 -65 21 -81 40 -7 8 -22 15 -35 15 -22 0 -55 28 -55 46 0 5 -13 15 -30 21
-27 10 -30 9 -30 -8 0 -10 4 -19 8 -19 5 0 9 -6 9 -13 0 -11 -10 -12 -61 -8
-5 1 -7 4 -3 7 8 8 -31 45 -54 49 -10 2 -21 0 -24 -4 -6 -11 -55 -1 -55 10 0
5 -6 9 -14 9 -8 0 -18 5 -21 10 -4 6 -1 9 5 8 15 -4 22 30 8 38 -5 3 -14 2
-19 -3 -9 -9 -87 4 -99 17 -3 3 -19 10 -37 16 -26 10 -31 9 -26 -2 3 -8 11
-14 18 -14 8 0 17 -9 20 -21 4 -12 12 -18 21 -15 17 7 18 -6 2 -22 -8 -8 -15
-9 -25 -1 -7 7 -13 7 -13 2 0 -6 10 -15 23 -22 12 -6 14 -10 5 -7 -20 6 -34
-24 -16 -36 9 -5 4 -8 -14 -8 -19 0 -28 5 -28 15 0 18 -35 34 -67 30 -13 -1
-23 2 -23 6 0 5 -9 9 -20 9 -11 0 -20 -5 -20 -11 0 -6 -5 -7 -12 -2 -19 11
-38 12 -62 3 -11 -5 -15 -9 -8 -9 6 -1 12 -5 12 -10 0 -5 -8 -8 -17 -6 -10 2
-21 4 -25 4 -4 1 -5 8 -1 17 4 10 -2 17 -16 21 -20 5 -21 6 -4 20 17 14 17 14
-1 8 -33 -10 -36 16 -5 46 29 29 27 31 -21 22z m-110 -67 c0 -3 -4 -8 -10 -11
-5 -3 -10 -1 -10 4 0 6 5 11 10 11 6 0 10 -2 10 -4z m487 -92 c-3 -3 -12 -4
-19 -1 -8 3 -5 6 6 6 11 1 17 -2 13 -5z m478 -122 c-3 -3 -11 0 -18 7 -9 10
-8 11 6 5 10 -3 15 -9 12 -12z m252 -152 c6 0 13 -5 15 -11 2 -5 11 -11 20
-13 31 -4 218 -212 218 -242 0 -5 16 -33 35 -61 37 -55 43 -69 23 -57 -6 4 -9
3 -6 -2 11 -19 21 -50 25 -73 2 -13 11 -30 19 -38 20 -20 18 -39 -3 -22 -14
13 -16 11 -11 -12 3 -15 -1 -37 -7 -50 -12 -21 -13 -22 -23 -3 -5 10 -10 32
-10 48 0 15 -4 31 -9 35 -5 3 -15 15 -21 26 -10 17 -11 15 -7 -15 4 -19 10
-39 14 -45 4 -5 11 -21 14 -33 5 -23 5 -23 -14 -6 -14 13 -18 14 -15 3 3 -8 2
-20 -3 -28 -8 -12 -12 -12 -25 2 -17 17 -22 42 -6 32 6 -4 7 2 1 17 -21 56
-85 155 -175 271 -34 43 -71 93 -84 110 -35 48 -90 97 -112 100 -11 2 -26 9
-33 16 -18 18 10 33 37 20 13 -6 8 2 -12 20 -43 41 -31 39 37 -7 86 -59 88
-59 52 -13 -20 25 -37 38 -41 32 -6 -11 -50 22 -50 37 0 14 48 6 77 -13 15 -9
22 -12 16 -4 -7 7 -13 20 -13 28 0 10 11 4 33 -17 18 -18 38 -32 44 -32z
m-121 -107 c-8 -9 -46 18 -40 28 4 6 13 4 25 -7 11 -9 17 -19 15 -21z m-2262
-318 c-4 -8 -11 -12 -16 -9 -6 4 -5 10 3 15 19 12 19 11 13 -6z m2593 -110 c8
-22 -6 -33 -17 -15 -13 20 -12 30 0 30 6 0 13 -7 17 -15z m-2856 -1340 c7 -15
8 -12 5 15 l-5 35 20 -35 c11 -19 18 -27 14 -16 -8 26 13 50 31 35 17 -14 19
-43 2 -33 -7 4 -8 3 -4 -5 6 -9 11 -9 21 -1 14 11 25 -6 25 -38 -1 -16 -2 -15
-14 1 -7 9 -16 17 -20 17 -9 0 41 -90 65 -116 10 -11 19 -24 19 -29 0 -10 128
-179 164 -217 15 -16 23 -28 19 -28 -9 0 78 -79 89 -81 4 -1 12 -2 18 -3 17
-2 32 -24 25 -36 -4 -6 -16 -9 -27 -7 -19 5 -19 5 -3 -13 10 -11 22 -17 26
-14 5 3 9 0 9 -5 0 -6 -3 -11 -8 -11 -8 0 -84 50 -92 60 -3 4 -16 13 -30 20
-24 13 -24 12 -10 -6 35 -46 54 -64 60 -54 6 10 50 -23 50 -38 0 -9 -47 -8
-57 1 -12 13 -25 7 -19 -8 9 -24 -7 -18 -37 15 -16 17 -35 30 -42 30 -7 0 -15
5 -17 11 -2 5 -11 11 -20 13 -16 2 -117 101 -166 162 -13 16 -34 50 -48 76
-13 25 -35 63 -49 83 -13 21 -22 42 -19 47 3 5 3 17 -1 26 -4 9 -9 28 -11 41
-2 13 -7 27 -12 30 -5 3 -11 14 -15 24 -6 15 -4 16 13 7 18 -10 19 -8 10 14
-5 15 -6 28 0 31 5 3 7 15 5 26 -4 18 -2 19 12 8 8 -7 19 -22 24 -34z m448
-468 c6 -8 8 -17 5 -20 -7 -7 -44 14 -44 25 0 13 27 9 39 -5z m598 -373 c-3
-3 -12 -4 -19 -1 -8 3 -5 6 6 6 11 1 17 -2 13 -5z m493 -84 c0 -5 -8 -10 -17
-10 -15 0 -16 2 -3 10 19 12 20 12 20 0z"/>
<path d="M1042 1780 c13 -22 24 -34 26 -27 5 23 -17 67 -33 67 -13 0 -12 -7 7
-40z"/>
<path d="M3450 3936 c0 -2 7 -9 15 -16 13 -11 14 -10 9 4 -5 14 -24 23 -24 12z"/>
<path d="M1296 3383 c-6 -14 -5 -15 5 -6 7 7 10 15 7 18 -3 3 -9 -2 -12 -12z"/>
<path d="M846 1985 c4 -8 11 -15 16 -15 6 0 5 6 -2 15 -7 8 -14 15 -16 15 -2
0 -1 -7 2 -15z"/>
<path d="M3695 1619 c-4 -6 -5 -12 -2 -15 2 -3 7 2 10 11 7 17 1 20 -8 4z"/>
</g>
</svg>
